<svg xmlns="http://www.w3.org/2000/svg" xmlns:xlink="http://www.w3.org/1999/xlink" width="837" height="416" version="1.1"><defs><filter id="dsFilterNoBlur" width="150%" height="150%"><feOffset dx="3" dy="3" in="SourceGraphic" result="offOut"/><feColorMatrix in="offOut" result="matrixOut" type="matrix" values="0.2 0 0 0 0 0 0.2 0 0 0 0 0 0.2 0 0 0 0 0 1 0"/><feBlend in="SourceGraphic" in2="matrixOut" mode="normal"/></filter><filter id="dsFilter" width="150%" height="150%"><feOffset dx="3" dy="3" in="SourceGraphic" result="offOut"/><feColorMatrix in="offOut" result="matrixOut" type="matrix" values="0.2 0 0 0 0 0 0.2 0 0 0 0 0 0.2 0 0 0 0 0 1 0"/><feGaussianBlur in="matrixOut" result="blurOut" stdDeviation="3"/><feBlend in="SourceGraphic" in2="blurOut" mode="normal"/></filter><marker id="iPointer" markerHeight="7" markerUnits="strokeWidth" markerWidth="8" orient="auto" refX="5" refY="5" viewBox="0 0 10 10"><path d="M 10 0 L 10 10 L 0 5 z"/></marker><marker id="Pointer" markerHeight="7" markerUnits="strokeWidth" markerWidth="8" orient="auto" refX="5" refY="5" viewBox="0 0 10 10"><path d="M 0 0 L 10 5 L 0 10 z"/></marker></defs><g id="boxes" fill="none" stroke="#000" stroke-width="2"><g id="group0"><path id="path0" fill="#fff" d="M 319.5 18 Q 319.5 8 329.5 8 L 399.5 8 Q 409.5 8 409.5 18 L 409.5 78 Q 409.5 88 399.5 88 L 329.5 88 Q 319.5 88 319.5 78 Z" filter="url(#dsFilter)"/><text id="text0" x="332.1" y="44.8" fill="#000" stroke="none" style="font-family:Consolas,Monaco,Anonymous Pro,Anonymous,Bitstream Sans Mono,monospace;font-size:16.8px">Splitter</text><text id="text0" x="332.1" y="60.8" fill="#000" stroke="none" style="font-family:Consolas,Monaco,Anonymous Pro,Anonymous,Bitstream Sans Mono,monospace;font-size:16.8px">+Monitor</text></g><g id="group2"><path id="path2" fill="#fff" d="M 427.5 18 Q 427.5 8 437.5 8 L 507.5 8 Q 517.5 8 517.5 18 L 517.5 78 Q 517.5 88 507.5 88 L 437.5 88 Q 427.5 88 427.5 78 Z" filter="url(#dsFilter)"/><text id="text2" x="440.1" y="44.8" fill="#000" stroke="none" style="font-family:Consolas,Monaco,Anonymous Pro,Anonymous,Bitstream Sans Mono,monospace;font-size:16.8px">Second</text><text id="text2" x="440.1" y="60.8" fill="#000" stroke="none" style="font-family:Consolas,Monaco,Anonymous Pro,Anonymous,Bitstream Sans Mono,monospace;font-size:16.8px">Monitor</text></g><g id="group11"><path id="path11" fill="#fff" d="M 13.5 146 Q 13.5 136 23.5 136 L 93.5 136 Q 103.5 136 103.5 146 L 103.5 190 Q 103.5 200 93.5 200 L 23.5 200 Q 13.5 200 13.5 190 Z" filter="url(#dsFilter)"/><text id="text11" x="35.1" y="156.8" fill="#000" stroke="none" style="font-family:Consolas,Monaco,Anonymous Pro,Anonymous,Bitstream Sans Mono,monospace;font-size:16.8px">Peer1</text><text id="text11" x="26.1" y="188.8" fill="#000" stroke="none" style="font-family:Consolas,Monaco,Anonymous Pro,Anonymous,Bitstream Sans Mono,monospace;font-size:16.8px">&lt;ifpc1&gt;</text></g><g id="group13"><path id="path13" fill="#fff" d="M 229.5 136 L 328.5 136 L 328.5 232 L 229.5 232 Z" filter="url(#dsFilter)"/><text id="text13" x="251.1" y="156.8" fill="#000" stroke="none" style="font-family:Consolas,Monaco,Anonymous Pro,Anonymous,Bitstream Sans Mono,monospace;font-size:16.8px">NAT 1</text><text id="text13" x="242.1" y="188.8" fill="#000" stroke="none" style="font-family:Consolas,Monaco,Anonymous Pro,Anonymous,Bitstream Sans Mono,monospace;font-size:16.8px">&lt;ifnat11&gt;</text><text id="text13" x="242.1" y="220.8" fill="#000" stroke="none" style="font-family:Consolas,Monaco,Anonymous Pro,Anonymous,Bitstream Sans Mono,monospace;font-size:16.8px">&lt;ifnat12&gt;</text></g><g id="group15"><path id="path15" fill="#fff" d="M 508.5 136 L 607.5 136 L 607.5 232 L 508.5 232 Z" filter="url(#dsFilter)"/><text id="text15" x="530.1" y="156.8" fill="#000" stroke="none" style="font-family:Consolas,Monaco,Anonymous Pro,Anonymous,Bitstream Sans Mono,monospace;font-size:16.8px">NAT 2</text><text id="text15" x="521.1" y="188.8" fill="#000" stroke="none" style="font-family:Consolas,Monaco,Anonymous Pro,Anonymous,Bitstream Sans Mono,monospace;font-size:16.8px">&lt;ifnat22&gt;</text><text id="text15" x="521.1" y="220.8" fill="#000" stroke="none" style="font-family:Consolas,Monaco,Anonymous Pro,Anonymous,Bitstream Sans Mono,monospace;font-size:16.8px">&lt;ifnat21&gt;</text></g><g id="group17"><path id="path17" fill="#fff" d="M 733.5 146 Q 733.5 136 743.5 136 L 813.5 136 Q 823.5 136 823.5 146 L 823.5 190 Q 823.5 200 813.5 200 L 743.5 200 Q 733.5 200 733.5 190 Z" filter="url(#dsFilter)"/><text id="text17" x="755.1" y="156.8" fill="#000" stroke="none" style="font-family:Consolas,Monaco,Anonymous Pro,Anonymous,Bitstream Sans Mono,monospace;font-size:16.8px">Peer2</text><text id="text17" x="746.1" y="188.8" fill="#000" stroke="none" style="font-family:Consolas,Monaco,Anonymous Pro,Anonymous,Bitstream Sans Mono,monospace;font-size:16.8px">&lt;ifpc2&gt;</text></g><g id="group60"><path id="path60" fill="#fff" d="M 373.5 296 L 463.5 296 L 463.5 376 L 373.5 376 Z" filter="url(#dsFilter)"/><text id="text60" x="395.1" y="332.8" fill="#000" stroke="none" style="font-family:Consolas,Monaco,Anonymous Pro,Anonymous,Bitstream Sans Mono,monospace;font-size:16.8px">Local</text><text id="text60" x="395.1" y="348.8" fill="#000" stroke="none" style="font-family:Consolas,Monaco,Anonymous Pro,Anonymous,Bitstream Sans Mono,monospace;font-size:16.8px">host</text></g></g><g id="lines" fill="none" stroke="#000" stroke-width="2"><g id="group104"><path id="path104" d="M 13.5 168 L 103.5 168"/></g><g id="group392"><path id="path392" marker-end="url(#Pointer)" marker-start="url(#iPointer)" d="M 112.5 184 L 166.5 184 L 220.5 184"/></g><g id="group548"><path id="path548" stroke-dasharray="5 5" marker-end="url(#Pointer)" d="M 166.5 184 L 166.5 328 L 364.5 328"/></g><g id="group730"><path id="path730" d="M 229.5 168 L 328.5 168"/></g><g id="group733"><path id="path733" d="M 229.5 200 L 328.5 200"/></g><g id="group1047"><path id="path1047" marker-end="url(#Pointer)" marker-start="url(#iPointer)" d="M 337.5 216 L 364.5 216 L 418.5 216 L 472.5 216 L 499.5 216"/></g><g id="group1118"><path id="path1118" marker-start="url(#iPointer)" d="M 364.5 104 L 364.5 216"/></g><g id="group1281"><path id="path1281" stroke-dasharray="5 5" marker-end="url(#Pointer)" d="M 418.5 216 L 418.5 280"/></g><g id="group1431"><path id="path1431" marker-start="url(#iPointer)" d="M 472.5 104 L 472.5 216"/></g><g id="group1445"><path id="path1445" stroke-dasharray="5 5" marker-end="url(#Pointer)" marker-start="url(#iPointer)" d="M 472.5 328 L 670.5 328 L 670.5 184 L 724.5 184"/></g><g id="group1539"><path id="path1539" d="M 508.5 168 L 607.5 168"/></g><g id="group1542"><path id="path1542" d="M 508.5 200 L 607.5 200"/></g><g id="group1854"><path id="path1854" marker-start="url(#iPointer)" d="M 616.5 184 L 670.5 184"/></g><g id="group2191"><path id="path2191" d="M 733.5 168 L 823.5 168"/></g></g><g id="text" fill="#000" style="font-family:Consolas,Monaco,Anonymous Pro,Anonymous,Bitstream Sans Mono,monospace;font-size:16.8px"><text id="text4" x="377.1" y="108.8" fill="#000">.6</text><text id="text5" x="449.1" y="108.8" fill="#000">.7</text><text id="text7" x="152.1" y="156.8" fill="#000">LAN1</text><text id="text10" x="656.1" y="156.8" fill="#000">LAN2</text><text id="text12" x="116.1" y="172.8" fill="#000">192.168.56.*</text><text id="text13" x="386.1" y="172.8" fill="#000">192.168</text><text id="text14" x="620.1" y="172.8" fill="#000">192.168.58.*</text><text id="text17" x="386.1" y="188.8" fill="#000">.57.*</text><text id="text20" x="116.1" y="204.8" fill="#000">.4</text><text id="text21" x="197.1" y="204.8" fill="#000">.5</text><text id="text22" x="377.1" y="204.8" fill="#000">&quot;internet&quot;</text><text id="text23" x="620.1" y="204.8" fill="#000">.4</text><text id="text24" x="701.1" y="204.8" fill="#000">.5</text><text id="text27" x="341.1" y="236.8" fill="#000">.4</text><text id="text28" x="476.1" y="236.8" fill="#000">.5</text><text id="text29" x="386.1" y="284.8" fill="#000">.1</text><text id="text31" x="341.1" y="348.8" fill="#000">.1</text><text id="text33" x="476.1" y="348.8" fill="#000">.1</text></g></svg>