<svg xmlns="http://www.w3.org/2000/svg" xmlns:xlink="http://www.w3.org/1999/xlink" width="648" height="352" version="1.1"><defs><filter id="dsFilterNoBlur" width="150%" height="150%"><feOffset dx="3" dy="3" in="SourceGraphic" result="offOut"/><feColorMatrix in="offOut" result="matrixOut" type="matrix" values="0.2 0 0 0 0 0 0.2 0 0 0 0 0 0.2 0 0 0 0 0 1 0"/><feBlend in="SourceGraphic" in2="matrixOut" mode="normal"/></filter><filter id="dsFilter" width="150%" height="150%"><feOffset dx="3" dy="3" in="SourceGraphic" result="offOut"/><feColorMatrix in="offOut" result="matrixOut" type="matrix" values="0.2 0 0 0 0 0 0.2 0 0 0 0 0 0.2 0 0 0 0 0 1 0"/><feGaussianBlur in="matrixOut" result="blurOut" stdDeviation="3"/><feBlend in="SourceGraphic" in2="blurOut" mode="normal"/></filter><marker id="iPointer" markerHeight="7" markerUnits="strokeWidth" markerWidth="8" orient="auto" refX="5" refY="5" viewBox="0 0 10 10"><path d="M 10 0 L 10 10 L 0 5 z"/></marker><marker id="Pointer" markerHeight="7" markerUnits="strokeWidth" markerWidth="8" orient="auto" refX="5" refY="5" viewBox="0 0 10 10"><path d="M 0 0 L 10 5 L 0 10 z"/></marker></defs><g id="boxes" fill="none" stroke="#000" stroke-width="2"><g id="group0"><path id="path0" fill="#fff" d="M 220.5 18 Q 220.5 8 230.5 8 L 300.5 8 Q 310.5 8 310.5 18 L 310.5 78 Q 310.5 88 300.5 88 L 230.5 88 Q 220.5 88 220.5 78 Z" filter="url(#dsFilter)"/><text id="text0" x="233.1" y="44.8" fill="#000" stroke="none" style="font-family:Consolas,Monaco,Anonymous Pro,Anonymous,Bitstream Sans Mono,monospace;font-size:16.8px">Splitter</text><text id="text0" x="233.1" y="60.8" fill="#000" stroke="none" style="font-family:Consolas,Monaco,Anonymous Pro,Anonymous,Bitstream Sans Mono,monospace;font-size:16.8px">+Monitor</text></g><g id="group2"><path id="path2" fill="#fff" d="M 328.5 18 Q 328.5 8 338.5 8 L 408.5 8 Q 418.5 8 418.5 18 L 418.5 78 Q 418.5 88 408.5 88 L 338.5 88 Q 328.5 88 328.5 78 Z" filter="url(#dsFilter)"/><text id="text2" x="341.1" y="44.8" fill="#000" stroke="none" style="font-family:Consolas,Monaco,Anonymous Pro,Anonymous,Bitstream Sans Mono,monospace;font-size:16.8px">Second</text><text id="text2" x="341.1" y="60.8" fill="#000" stroke="none" style="font-family:Consolas,Monaco,Anonymous Pro,Anonymous,Bitstream Sans Mono,monospace;font-size:16.8px">Monitor</text></g><g id="group9"><path id="path9" fill="#fff" d="M 4.5 130 Q 4.5 120 14.5 120 L 66.5 120 Q 76.5 120 76.5 130 L 76.5 174 Q 76.5 184 66.5 184 L 14.5 184 Q 4.5 184 4.5 174 Z" filter="url(#dsFilter)"/><text id="text9" x="17.1" y="156.8" fill="#000" stroke="none" style="font-family:Consolas,Monaco,Anonymous Pro,Anonymous,Bitstream Sans Mono,monospace;font-size:16.8px">Peer1</text></g><g id="group11"><path id="path11" fill="#fff" d="M 148.5 120 L 238.5 120 L 238.5 184 L 148.5 184 Z" filter="url(#dsFilter)"/><text id="text11" x="170.1" y="156.8" fill="#000" stroke="none" style="font-family:Consolas,Monaco,Anonymous Pro,Anonymous,Bitstream Sans Mono,monospace;font-size:16.8px">NAT 1</text></g><g id="group13"><path id="path13" fill="#fff" d="M 400.5 120 L 490.5 120 L 490.5 184 L 400.5 184 Z" filter="url(#dsFilter)"/><text id="text13" x="422.1" y="156.8" fill="#000" stroke="none" style="font-family:Consolas,Monaco,Anonymous Pro,Anonymous,Bitstream Sans Mono,monospace;font-size:16.8px">NAT 2</text></g><g id="group15"><path id="path15" fill="#fff" d="M 562.5 130 Q 562.5 120 572.5 120 L 624.5 120 Q 634.5 120 634.5 130 L 634.5 174 Q 634.5 184 624.5 184 L 572.5 184 Q 562.5 184 562.5 174 Z" filter="url(#dsFilter)"/><text id="text15" x="575.1" y="156.8" fill="#000" stroke="none" style="font-family:Consolas,Monaco,Anonymous Pro,Anonymous,Bitstream Sans Mono,monospace;font-size:16.8px">Peer2</text></g><g id="group30"><path id="path30" fill="#fff" d="M 274.5 232 L 364.5 232 L 364.5 312 L 274.5 312 Z" filter="url(#dsFilter)"/><text id="text30" x="296.1" y="268.8" fill="#000" stroke="none" style="font-family:Consolas,Monaco,Anonymous Pro,Anonymous,Bitstream Sans Mono,monospace;font-size:16.8px">Local</text><text id="text30" x="296.1" y="284.8" fill="#000" stroke="none" style="font-family:Consolas,Monaco,Anonymous Pro,Anonymous,Bitstream Sans Mono,monospace;font-size:16.8px">host</text></g></g><g id="lines" fill="none" stroke="#000" stroke-width="2"><g id="group243"><path id="path243" marker-end="url(#Pointer)" marker-start="url(#iPointer)" d="M 85.5 152 L 112.5 152 L 139.5 152"/></g><g id="group309"><path id="path309" stroke-dasharray="5 5" marker-end="url(#Pointer)" d="M 112.5 152 L 112.5 264 L 265.5 264"/></g><g id="group640"><path id="path640" marker-end="url(#Pointer)" marker-start="url(#iPointer)" d="M 247.5 152 L 265.5 152 L 319.5 152 L 373.5 152 L 391.5 152"/></g><g id="group681"><path id="path681" marker-start="url(#iPointer)" d="M 265.5 104 L 265.5 152"/></g><g id="group816"><path id="path816" stroke-dasharray="5 5" marker-end="url(#Pointer)" d="M 319.5 152 L 319.5 216"/></g><g id="group946"><path id="path946" marker-start="url(#iPointer)" d="M 373.5 104 L 373.5 152"/></g><g id="group956"><path id="path956" stroke-dasharray="5 5" marker-end="url(#Pointer)" marker-start="url(#iPointer)" d="M 373.5 264 L 526.5 264 L 526.5 152 L 553.5 152"/></g><g id="group1257"><path id="path1257" marker-start="url(#iPointer)" d="M 499.5 152 L 526.5 152"/></g></g><g id="text" fill="#000" style="font-family:Consolas,Monaco,Anonymous Pro,Anonymous,Bitstream Sans Mono,monospace;font-size:16.8px"><text id="text4" x="98.1" y="140.8" fill="#000">LAN1</text><text id="text5" x="278.1" y="140.8" fill="#000">&quot;internet&quot;</text><text id="text6" x="512.1" y="140.8" fill="#000">LAN2</text></g></svg>