<svg xmlns="http://www.w3.org/2000/svg" xmlns:xlink="http://www.w3.org/1999/xlink" width="621" height="672" version="1.1"><defs><filter id="dsFilterNoBlur" width="150%" height="150%"><feOffset dx="3" dy="3" in="SourceGraphic" result="offOut"/><feColorMatrix in="offOut" result="matrixOut" type="matrix" values="0.2 0 0 0 0 0 0.2 0 0 0 0 0 0.2 0 0 0 0 0 1 0"/><feBlend in="SourceGraphic" in2="matrixOut" mode="normal"/></filter><filter id="dsFilter" width="150%" height="150%"><feOffset dx="3" dy="3" in="SourceGraphic" result="offOut"/><feColorMatrix in="offOut" result="matrixOut" type="matrix" values="0.2 0 0 0 0 0 0.2 0 0 0 0 0 0.2 0 0 0 0 0 1 0"/><feGaussianBlur in="matrixOut" result="blurOut" stdDeviation="3"/><feBlend in="SourceGraphic" in2="blurOut" mode="normal"/></filter><marker id="iPointer" markerHeight="7" markerUnits="strokeWidth" markerWidth="8" orient="auto" refX="5" refY="5" viewBox="0 0 10 10"><path d="M 10 0 L 10 10 L 0 5 z"/></marker><marker id="Pointer" markerHeight="7" markerUnits="strokeWidth" markerWidth="8" orient="auto" refX="5" refY="5" viewBox="0 0 10 10"><path d="M 0 0 L 10 5 L 0 10 z"/></marker></defs><g id="boxes" fill="none" stroke="#000" stroke-width="2"><g id="group0"><path id="path0" fill="#fff" d="M 40.5 24 L 337.5 24 L 337.5 56 L 40.5 56 Z" filter="url(#dsFilter)"/><text id="text0" x="53.1" y="44.8" fill="#000" stroke="none" style="font-family:Consolas,Monaco,Anonymous Pro,Anonymous,Bitstream Sans Mono,monospace;font-size:16.8px">Peer initialized</text></g><g id="group5"><path id="path5" fill="#fff" d="M 40.5 98 Q 40.5 88 50.5 88 L 327.5 88 Q 337.5 88 337.5 98 L 337.5 142 Q 337.5 152 327.5 152 L 50.5 152 Q 40.5 152 40.5 142 Z" filter="url(#dsFilter)"/><text id="text5" x="53.1" y="108.8" fill="#000" stroke="none" style="font-family:Consolas,Monaco,Anonymous Pro,Anonymous,Bitstream Sans Mono,monospace;font-size:16.8px">Connecting to splitter via TCP,</text><text id="text5" x="53.1" y="124.8" fill="#000" stroke="none" style="font-family:Consolas,Monaco,Anonymous Pro,Anonymous,Bitstream Sans Mono,monospace;font-size:16.8px">receiving configuration (list</text><text id="text5" x="53.1" y="140.8" fill="#000" stroke="none" style="font-family:Consolas,Monaco,Anonymous Pro,Anonymous,Bitstream Sans Mono,monospace;font-size:16.8px">of peers) and stream header</text></g><g id="group7"><path id="path7" fill="#fff" d="M 544.5 114 Q 544.5 104 554.5 104 L 597.5 104 Q 607.5 104 607.5 114 L 607.5 126 Q 607.5 136 597.5 136 L 554.5 136 Q 544.5 136 544.5 126 Z" filter="url(#dsFilter)"/><text id="text7" x="557.1" y="124.8" fill="#000" stroke="none" style="font-family:Consolas,Monaco,Anonymous Pro,Anonymous,Bitstream Sans Mono,monospace;font-size:16.8px">Quit</text></g><g id="group15"><path id="path15" fill="#fff" d="M 40.5 216 L 337.5 216 L 337.5 248 L 40.5 248 Z" filter="url(#dsFilter)"/><text id="text15" x="53.1" y="236.8" fill="#000" stroke="none" style="font-family:Consolas,Monaco,Anonymous Pro,Anonymous,Bitstream Sans Mono,monospace;font-size:16.8px">Peer arriving</text></g><g id="group21"><path id="path21" fill="#fff" d="M 40.5 290 Q 40.5 280 50.5 280 L 327.5 280 Q 337.5 280 337.5 290 L 337.5 334 Q 337.5 344 327.5 344 L 50.5 344 Q 40.5 344 40.5 334 Z" filter="url(#dsFilter)"/><text id="text21" x="53.1" y="300.8" fill="#000" stroke="none" style="font-family:Consolas,Monaco,Anonymous Pro,Anonymous,Bitstream Sans Mono,monospace;font-size:16.8px">Sending UDP hello packets</text><text id="text21" x="53.1" y="316.8" fill="#000" stroke="none" style="font-family:Consolas,Monaco,Anonymous Pro,Anonymous,Bitstream Sans Mono,monospace;font-size:16.8px">to splitter and monitors,</text><text id="text21" x="53.1" y="332.8" fill="#000" stroke="none" style="font-family:Consolas,Monaco,Anonymous Pro,Anonymous,Bitstream Sans Mono,monospace;font-size:16.8px">receiving acknowledge</text></g><g id="group23"><path id="path23" fill="#fff" d="M 544.5 306 Q 544.5 296 554.5 296 L 597.5 296 Q 607.5 296 607.5 306 L 607.5 318 Q 607.5 328 597.5 328 L 554.5 328 Q 544.5 328 544.5 318 Z" filter="url(#dsFilter)"/><text id="text23" x="557.1" y="316.8" fill="#000" stroke="none" style="font-family:Consolas,Monaco,Anonymous Pro,Anonymous,Bitstream Sans Mono,monospace;font-size:16.8px">Quit</text></g><g id="group31"><path id="path31" fill="#fff" d="M 463.5 402 Q 463.5 392 473.5 392 L 597.5 392 Q 607.5 392 607.5 402 L 607.5 430 Q 607.5 440 597.5 440 L 473.5 440 Q 463.5 440 463.5 430 Z" filter="url(#dsFilter)"/><text id="text31" x="476.1" y="412.8" fill="#000" stroke="none" style="font-family:Consolas,Monaco,Anonymous Pro,Anonymous,Bitstream Sans Mono,monospace;font-size:16.8px">retrying</text><text id="text31" x="476.1" y="428.8" fill="#000" stroke="none" style="font-family:Consolas,Monaco,Anonymous Pro,Anonymous,Bitstream Sans Mono,monospace;font-size:16.8px">incorporation</text></g><g id="group34"><path id="path34" fill="#fff" d="M 40.5 408 L 337.5 408 L 337.5 440 L 40.5 440 Z" filter="url(#dsFilter)"/><text id="text34" x="53.1" y="428.8" fill="#000" stroke="none" style="font-family:Consolas,Monaco,Anonymous Pro,Anonymous,Bitstream Sans Mono,monospace;font-size:16.8px">Peer incorporating</text></g><g id="group41"><path id="path41" fill="#fff" d="M 40.5 482 Q 40.5 472 50.5 472 L 327.5 472 Q 337.5 472 337.5 482 L 337.5 526 Q 337.5 536 327.5 536 L 50.5 536 Q 40.5 536 40.5 526 Z" filter="url(#dsFilter)"/><text id="text41" x="53.1" y="492.8" fill="#000" stroke="none" style="font-family:Consolas,Monaco,Anonymous Pro,Anonymous,Bitstream Sans Mono,monospace;font-size:16.8px">Sending UDP hello packets to</text><text id="text41" x="53.1" y="508.8" fill="#000" stroke="none" style="font-family:Consolas,Monaco,Anonymous Pro,Anonymous,Bitstream Sans Mono,monospace;font-size:16.8px">all other incorporated and</text><text id="text41" x="53.1" y="524.8" fill="#000" stroke="none" style="font-family:Consolas,Monaco,Anonymous Pro,Anonymous,Bitstream Sans Mono,monospace;font-size:16.8px">currently incorporating peers</text></g><g id="group45"><path id="path45" fill="#fff" d="M 544.5 514 Q 544.5 504 554.5 504 L 597.5 504 Q 607.5 504 607.5 514 L 607.5 526 Q 607.5 536 597.5 536 L 554.5 536 Q 544.5 536 544.5 526 Z" filter="url(#dsFilter)"/><text id="text45" x="557.1" y="524.8" fill="#000" stroke="none" style="font-family:Consolas,Monaco,Anonymous Pro,Anonymous,Bitstream Sans Mono,monospace;font-size:16.8px">Quit</text></g><g id="group53"><path id="path53" fill="#fff" d="M 40.5 600 L 337.5 600 L 337.5 632 L 40.5 632 Z" filter="url(#dsFilter)"/><text id="text53" x="53.1" y="620.8" fill="#000" stroke="none" style="font-family:Consolas,Monaco,Anonymous Pro,Anonymous,Bitstream Sans Mono,monospace;font-size:16.8px">Peer successfully incorporated</text></g></g><g id="lines" fill="none" stroke="#000" stroke-width="2"><g id="group481"><path id="path481" marker-start="url(#iPointer)" d="M 94.5 72 L 94.5 56"/></g><g id="group486"><path id="path486" marker-end="url(#Pointer)" d="M 94.5 152 L 94.5 200"/></g><g id="group494"><path id="path494" marker-start="url(#iPointer)" d="M 94.5 264 L 94.5 248"/></g><g id="group499"><path id="path499" marker-end="url(#Pointer)" d="M 94.5 344 L 94.5 392"/></g><g id="group507"><path id="path507" marker-start="url(#iPointer)" d="M 94.5 456 L 94.5 440"/></g><g id="group512"><path id="path512" marker-end="url(#Pointer)" d="M 94.5 536 L 94.5 584"/></g><g id="group1621"><path id="path1621" stroke-dasharray="5 5" marker-end="url(#Pointer)" d="M 337.5 120 L 535.5 120"/></g><g id="group1634"><path id="path1634" stroke-dasharray="5 5" marker-end="url(#Pointer)" d="M 337.5 312 L 535.5 312"/></g><g id="group1646"><path id="path1646" stroke-dasharray="5 5" marker-end="url(#Pointer)" d="M 337.5 488 L 498.5 488 Q 508.5 488 508.5 478 L 508.5 456"/></g><g id="group1649"><path id="path1649" stroke-dasharray="5 5" marker-end="url(#Pointer)" d="M 337.5 520 L 535.5 520"/></g><g id="group1674"><path id="path1674" stroke-dasharray="5 5" marker-start="url(#iPointer)" d="M 346.5 232 L 498.5 232 Q 508.5 232 508.5 242 L 508.5 296"/></g><g id="group2436"><path id="path2436" stroke-dasharray="5 5" d="M 508.5 328 L 508.5 392"/></g></g><g id="text" fill="#000" style="font-family:Consolas,Monaco,Anonymous Pro,Anonymous,Bitstream Sans Mono,monospace;font-size:16.8px"><text id="text3" x="350.1" y="108.8" fill="#000">connection failed</text><text id="text7" x="107.1" y="188.8" fill="#000">connection successful</text><text id="text10" x="350.1" y="300.8" fill="#000">timeout (~10s)</text><text id="text14" x="107.1" y="380.8" fill="#000">all acknowledgements received in time</text><text id="text18" x="350.1" y="476.8" fill="#000">timeout (~15s)</text><text id="text23" x="350.1" y="540.8" fill="#000">timeout (~60s)</text><text id="text24" x="107.1" y="572.8" fill="#000">all acknowledgements received in time</text></g></svg>