<svg xmlns="http://www.w3.org/2000/svg" xmlns:xlink="http://www.w3.org/1999/xlink" width="828" height="864" version="1.1"><defs><filter id="dsFilterNoBlur" width="150%" height="150%"><feOffset dx="3" dy="3" in="SourceGraphic" result="offOut"/><feColorMatrix in="offOut" result="matrixOut" type="matrix" values="0.2 0 0 0 0 0 0.2 0 0 0 0 0 0.2 0 0 0 0 0 1 0"/><feBlend in="SourceGraphic" in2="matrixOut" mode="normal"/></filter><filter id="dsFilter" width="150%" height="150%"><feOffset dx="3" dy="3" in="SourceGraphic" result="offOut"/><feColorMatrix in="offOut" result="matrixOut" type="matrix" values="0.2 0 0 0 0 0 0.2 0 0 0 0 0 0.2 0 0 0 0 0 1 0"/><feGaussianBlur in="matrixOut" result="blurOut" stdDeviation="3"/><feBlend in="SourceGraphic" in2="blurOut" mode="normal"/></filter><marker id="iPointer" markerHeight="7" markerUnits="strokeWidth" markerWidth="8" orient="auto" refX="5" refY="5" viewBox="0 0 10 10"><path d="M 10 0 L 10 10 L 0 5 z"/></marker><marker id="Pointer" markerHeight="7" markerUnits="strokeWidth" markerWidth="8" orient="auto" refX="5" refY="5" viewBox="0 0 10 10"><path d="M 0 0 L 10 5 L 0 10 z"/></marker></defs><g id="boxes" fill="none" stroke="#000" stroke-width="2"><g id="group__Monitor_peer_"><path id="path__Monitor_peer_" fill="#f0f0f0" d="M 166.5 18 Q 166.5 8 176.5 8 L 328.5 8 L 328.5 824 L 176.5 824 Q 166.5 824 166.5 814 Z" filter="url(#dsFilter)"/><text id="text__Monitor_peer_" x="197.1" y="28.8" fill="#000" stroke="none" style="font-family:Consolas,Monaco,Anonymous Pro,Anonymous,Bitstream Sans Mono,monospace;font-size:16.8px">Monitor peer</text><text id="text__Monitor_peer_" x="233.1" y="76.8" fill="#000" stroke="none" style="font-family:Consolas,Monaco,Anonymous Pro,Anonymous,Bitstream Sans Mono,monospace;font-size:16.8px">connection</text><text id="text__Monitor_peer_" x="242.1" y="300.8" fill="#000" stroke="none" style="font-family:Consolas,Monaco,Anonymous Pro,Anonymous,Bitstream Sans Mono,monospace;font-size:16.8px">forwarded</text></g><g id="group____Splitter___"><path id="path____Splitter___" fill="#fbfbfb" d="M 328.5 8 L 490.5 8 L 490.5 824 L 328.5 824 Z" filter="url(#dsFilter)"/><text id="text____Splitter___" x="377.1" y="28.8" fill="#000" stroke="none" style="font-family:Consolas,Monaco,Anonymous Pro,Anonymous,Bitstream Sans Mono,monospace;font-size:16.8px">Splitter</text><text id="text____Splitter___" x="341.1" y="76.8" fill="#000" stroke="none" style="font-family:Consolas,Monaco,Anonymous Pro,Anonymous,Bitstream Sans Mono,monospace;font-size:16.8px">established</text><text id="text____Splitter___" x="395.1" y="124.8" fill="#000" stroke="none" style="font-family:Consolas,Monaco,Anonymous Pro,Anonymous,Bitstream Sans Mono,monospace;font-size:16.8px">connection</text><text id="text____Splitter___" x="395.1" y="172.8" fill="#000" stroke="none" style="font-family:Consolas,Monaco,Anonymous Pro,Anonymous,Bitstream Sans Mono,monospace;font-size:16.8px">connection</text><text id="text____Splitter___" x="341.1" y="300.8" fill="#000" stroke="none" style="font-family:Consolas,Monaco,Anonymous Pro,Anonymous,Bitstream Sans Mono,monospace;font-size:16.8px">hello+port</text><text id="text____Splitter___" x="449.1" y="348.8" fill="#000" stroke="none" style="font-family:Consolas,Monaco,Anonymous Pro,Anonymous,Bitstream Sans Mono,monospace;font-size:16.8px">list</text><text id="text____Splitter___" x="341.1" y="396.8" fill="#000" stroke="none" style="font-family:Consolas,Monaco,Anonymous Pro,Anonymous,Bitstream Sans Mono,monospace;font-size:16.8px">splitter creates</text><text id="text____Splitter___" x="341.1" y="412.8" fill="#000" stroke="none" style="font-family:Consolas,Monaco,Anonymous Pro,Anonymous,Bitstream Sans Mono,monospace;font-size:16.8px">a</text><text id="text____Splitter___" x="359.1" y="412.8" fill="#000" stroke="none" style="font-family:Consolas,Monaco,Anonymous Pro,Anonymous,Bitstream Sans Mono,monospace;font-size:16.8px">new temporary</text><text id="text____Splitter___" x="341.1" y="428.8" fill="#000" stroke="none" style="font-family:Consolas,Monaco,Anonymous Pro,Anonymous,Bitstream Sans Mono,monospace;font-size:16.8px">UDP socket</text><text id="text____Splitter___" x="341.1" y="460.8" fill="#000" stroke="none" style="font-family:Consolas,Monaco,Anonymous Pro,Anonymous,Bitstream Sans Mono,monospace;font-size:16.8px">updated endpoint</text><text id="text____Splitter___" x="386.1" y="492.8" fill="#000" stroke="none" style="font-family:Consolas,Monaco,Anonymous Pro,Anonymous,Bitstream Sans Mono,monospace;font-size:16.8px">port of the</text><text id="text____Splitter___" x="413.1" y="524.8" fill="#000" stroke="none" style="font-family:Consolas,Monaco,Anonymous Pro,Anonymous,Bitstream Sans Mono,monospace;font-size:16.8px">hello to</text><text id="text____Splitter___" x="431.1" y="604.8" fill="#000" stroke="none" style="font-family:Consolas,Monaco,Anonymous Pro,Anonymous,Bitstream Sans Mono,monospace;font-size:16.8px">source</text><text id="text____Splitter___" x="386.1" y="700.8" fill="#000" stroke="none" style="font-family:Consolas,Monaco,Anonymous Pro,Anonymous,Bitstream Sans Mono,monospace;font-size:16.8px">source port</text><text id="text____Splitter___" x="350.1" y="796.8" fill="#000" stroke="none" style="font-family:Consolas,Monaco,Anonymous Pro,Anonymous,Bitstream Sans Mono,monospace;font-size:16.8px">splitter closes</text><text id="text____Splitter___" x="350.1" y="812.8" fill="#000" stroke="none" style="font-family:Consolas,Monaco,Anonymous Pro,Anonymous,Bitstream Sans Mono,monospace;font-size:16.8px">TCP socket</text></g><g id="group_____Peer_1____"><path id="path_____Peer_1____" fill="#f0f0f0" d="M 490.5 8 L 652.5 8 L 652.5 824 L 490.5 824 Z" filter="url(#dsFilter)"/><text id="text_____Peer_1____" x="548.1" y="28.8" fill="#000" stroke="none" style="font-family:Consolas,Monaco,Anonymous Pro,Anonymous,Bitstream Sans Mono,monospace;font-size:16.8px">Peer 1</text><text id="text_____Peer_1____" x="503.1" y="124.8" fill="#000" stroke="none" style="font-family:Consolas,Monaco,Anonymous Pro,Anonymous,Bitstream Sans Mono,monospace;font-size:16.8px">established</text><text id="text_____Peer_1____" x="503.1" y="172.8" fill="#000" stroke="none" style="font-family:Consolas,Monaco,Anonymous Pro,Anonymous,Bitstream Sans Mono,monospace;font-size:16.8px">established over</text><text id="text_____Peer_1____" x="521.1" y="252.8" fill="#000" stroke="none" style="font-family:Consolas,Monaco,Anonymous Pro,Anonymous,Bitstream Sans Mono,monospace;font-size:16.8px">retry hello</text><text id="text_____Peer_1____" x="521.1" y="300.8" fill="#000" stroke="none" style="font-family:Consolas,Monaco,Anonymous Pro,Anonymous,Bitstream Sans Mono,monospace;font-size:16.8px">retry hello</text><text id="text_____Peer_1____" x="503.1" y="348.8" fill="#000" stroke="none" style="font-family:Consolas,Monaco,Anonymous Pro,Anonymous,Bitstream Sans Mono,monospace;font-size:16.8px">of peers (TCP)</text><text id="text_____Peer_1____" x="503.1" y="460.8" fill="#000" stroke="none" style="font-family:Consolas,Monaco,Anonymous Pro,Anonymous,Bitstream Sans Mono,monospace;font-size:16.8px">of peer 2 and</text><text id="text_____Peer_1____" x="503.1" y="492.8" fill="#000" stroke="none" style="font-family:Consolas,Monaco,Anonymous Pro,Anonymous,Bitstream Sans Mono,monospace;font-size:16.8px">temporary socket</text><text id="text_____Peer_1____" x="503.1" y="524.8" fill="#000" stroke="none" style="font-family:Consolas,Monaco,Anonymous Pro,Anonymous,Bitstream Sans Mono,monospace;font-size:16.8px">new socket</text><text id="text_____Peer_1____" x="602.1" y="556.8" fill="#000" stroke="none" style="font-family:Consolas,Monaco,Anonymous Pro,Anonymous,Bitstream Sans Mono,monospace;font-size:16.8px">hello</text><text id="text_____Peer_1____" x="503.1" y="604.8" fill="#000" stroke="none" style="font-family:Consolas,Monaco,Anonymous Pro,Anonymous,Bitstream Sans Mono,monospace;font-size:16.8px">port of peer 1</text><text id="text_____Peer_1____" x="602.1" y="652.8" fill="#000" stroke="none" style="font-family:Consolas,Monaco,Anonymous Pro,Anonymous,Bitstream Sans Mono,monospace;font-size:16.8px">hello</text><text id="text_____Peer_1____" x="503.1" y="700.8" fill="#000" stroke="none" style="font-family:Consolas,Monaco,Anonymous Pro,Anonymous,Bitstream Sans Mono,monospace;font-size:16.8px">of peer 2</text><text id="text_____Peer_1____" x="503.1" y="748.8" fill="#000" stroke="none" style="font-family:Consolas,Monaco,Anonymous Pro,Anonymous,Bitstream Sans Mono,monospace;font-size:16.8px">success message</text></g><g id="group_____Peer_2____"><path id="path_____Peer_2____" fill="#fbfbfb" d="M 652.5 8 L 804.5 8 Q 814.5 8 814.5 18 L 814.5 814 Q 814.5 824 804.5 824 L 652.5 824 Z" filter="url(#dsFilter)"/><text id="text_____Peer_2____" x="710.1" y="28.8" fill="#000" stroke="none" style="font-family:Consolas,Monaco,Anonymous Pro,Anonymous,Bitstream Sans Mono,monospace;font-size:16.8px">Peer 2</text><text id="text_____Peer_2____" x="665.1" y="172.8" fill="#000" stroke="none" style="font-family:Consolas,Monaco,Anonymous Pro,Anonymous,Bitstream Sans Mono,monospace;font-size:16.8px">TCP</text><text id="text_____Peer_2____" x="674.1" y="796.8" fill="#000" stroke="none" style="font-family:Consolas,Monaco,Anonymous Pro,Anonymous,Bitstream Sans Mono,monospace;font-size:16.8px">peer closes</text><text id="text_____Peer_2____" x="674.1" y="812.8" fill="#000" stroke="none" style="font-family:Consolas,Monaco,Anonymous Pro,Anonymous,Bitstream Sans Mono,monospace;font-size:16.8px">TCP socket</text></g><g id="group10"><path id="path10" fill="#fff" d="M 4.5 66 Q 4.5 56 14.5 56 L 138.5 56 Q 148.5 56 148.5 66 L 148.5 78 Q 148.5 88 138.5 88 L 14.5 88 Q 4.5 88 4.5 78 Z" filter="url(#dsFilter)"/><text id="text10" x="17.1" y="76.8" fill="#000" stroke="none" style="font-family:Consolas,Monaco,Anonymous Pro,Anonymous,Bitstream Sans Mono,monospace;font-size:16.8px">Initial state</text></g><g id="group26"><path id="path26" fill="#fff" d="M 4.5 242 Q 4.5 232 14.5 232 L 138.5 232 Q 148.5 232 148.5 242 L 148.5 270 Q 148.5 280 138.5 280 L 14.5 280 Q 4.5 280 4.5 270 Z" filter="url(#dsFilter)"/><text id="text26" x="17.1" y="252.8" fill="#000" stroke="none" style="font-family:Consolas,Monaco,Anonymous Pro,Anonymous,Bitstream Sans Mono,monospace;font-size:16.8px">Peer 2 retries</text><text id="text26" x="17.1" y="268.8" fill="#000" stroke="none" style="font-family:Consolas,Monaco,Anonymous Pro,Anonymous,Bitstream Sans Mono,monospace;font-size:16.8px">incorporation</text></g><g id="group48"><path id="path48" fill="#fff" d="M 4.5 786 Q 4.5 776 14.5 776 L 138.5 776 Q 148.5 776 148.5 786 L 148.5 814 Q 148.5 824 138.5 824 L 14.5 824 Q 4.5 824 4.5 814 Z" filter="url(#dsFilter)"/><text id="text48" x="17.1" y="796.8" fill="#000" stroke="none" style="font-family:Consolas,Monaco,Anonymous Pro,Anonymous,Bitstream Sans Mono,monospace;font-size:16.8px">Incorporation</text><text id="text48" x="17.1" y="812.8" fill="#000" stroke="none" style="font-family:Consolas,Monaco,Anonymous Pro,Anonymous,Bitstream Sans Mono,monospace;font-size:16.8px">successful</text></g></g><g id="lines" fill="none" stroke="#000" stroke-width="2"><g id="group1031"><path id="path1031" d="M 166.5 40 L 328.5 40 L 490.5 40 L 652.5 40 L 814.5 40"/></g><g id="group1043"><path id="path1043" stroke-dasharray="5 5" d="M 166.5 216 L 328.5 216 L 490.5 216 L 652.5 216 L 814.5 216"/></g><g id="group1576"><path id="path1576" marker-end="url(#Pointer)" marker-start="url(#iPointer)" d="M 256.5 88 L 328.5 88 L 400.5 88"/></g><g id="group1579"><path id="path1579" marker-end="url(#Pointer)" marker-start="url(#iPointer)" d="M 256.5 136 L 328.5 136 L 490.5 136 L 562.5 136"/></g><g id="group1587"><path id="path1587" marker-start="url(#iPointer)" d="M 256.5 264 L 328.5 264 L 490.5 264 L 652.5 264 L 724.5 264"/></g><g id="group1590"><path id="path1590" marker-end="url(#Pointer)" d="M 256.5 312 L 328.5 312 L 400.5 312"/></g><g id="group2548"><path id="path2548" marker-end="url(#Pointer)" marker-start="url(#iPointer)" d="M 418.5 88 L 490.5 88 L 562.5 88"/></g><g id="group2554"><path id="path2554" marker-end="url(#Pointer)" marker-start="url(#iPointer)" d="M 418.5 184 L 490.5 184 L 652.5 184 L 724.5 184"/></g><g id="group2562"><path id="path2562" marker-start="url(#iPointer)" d="M 418.5 312 L 490.5 312 L 652.5 312 L 724.5 312"/></g><g id="group2565"><path id="path2565" marker-end="url(#Pointer)" d="M 418.5 360 L 490.5 360 L 652.5 360 L 724.5 360"/></g><g id="group2572"><path id="path2572" marker-end="url(#Pointer)" d="M 418.5 472 L 490.5 472 L 562.5 472"/></g><g id="group2576"><path id="path2576" marker-start="url(#iPointer)" d="M 418.5 536 L 490.5 536 L 562.5 536"/></g><g id="group2581"><path id="path2581" marker-start="url(#iPointer)" d="M 418.5 616 L 490.5 616 L 652.5 616 L 724.5 616"/></g><g id="group2587"><path id="path2587" marker-start="url(#iPointer)" d="M 418.5 712 L 490.5 712 L 544.5 712"/></g><g id="group2590"><path id="path2590" marker-start="url(#iPointer)" d="M 418.5 760 L 490.5 760 L 652.5 760 L 724.5 760"/></g><g id="group3550"><path id="path3550" marker-end="url(#Pointer)" d="M 580.5 568 L 652.5 568 L 724.5 568"/></g><g id="group3556"><path id="path3556" marker-start="url(#iPointer)" d="M 580.5 664 L 652.5 664 L 724.5 664"/></g></g></svg>